<svg xmlns="http://www.w3.org/2000/svg" viewBox="0 0 520 420" role="img" aria-labelledby="t d"><title id="t">Simplified heme structure</title><desc id="d">Scientific illustration of a porphyrin ring with an iron Fe center used to explain heme chemistry in hemoglobin.</desc><defs><style>.r{fill:none;stroke:#3f332c;stroke-width:4;stroke-linecap:round;stroke-linejoin:round}.b{stroke:#9b6c4d;stroke-width:2.4}.n{fill:#d84d12;font:700 23px Arial}.c{fill:#fff7eb;stroke:#d84d12;stroke-width:3}.fe{fill:#d84d12;font:800 34px Georgia}</style></defs><g transform="translate(260 210)"><path class="r" d="M0-145l88 38 38 88-38 88-88 38-88-38-38-88 38-88z"/><path class="r" d="M0-104l62 27 27 62-27 62-62 27-62-27-27-62 27-62z"/><line class="b" x1="0" y1="-145" x2="0" y2="-104"/><line class="b" x1="88" y1="-107" x2="62" y2="-77"/><line class="b" x1="126" y1="-19" x2="89" y2="-15"/><line class="b" x1="88" y1="69" x2="62" y2="47"/><line class="b" x1="0" y1="107" x2="0" y2="74"/><line class="b" x1="-88" y1="69" x2="-62" y2="47"/><line class="b" x1="-126" y1="-19" x2="-89" y2="-15"/><line class="b" x1="-88" y1="-107" x2="-62" y2="-77"/><text class="n" x="-13" y="-88">N</text><text class="n" x="74" y="8">N</text><text class="n" x="-13" y="78">N</text><text class="n" x="-91" y="8">N</text><line class="b" x1="0" y1="-72" x2="0" y2="-28"/><line class="b" x1="66" y1="0" x2="26" y2="0"/><line class="b" x1="0" y1="64" x2="0" y2="27"/><line class="b" x1="-66" y1="0" x2="-26" y2="0"/><circle class="c" cx="0" cy="0" r="35"/><text class="fe" x="-21" y="12">Fe</text></g></svg>